<svg xmlns="http://www.w3.org/2000/svg" xml:space="preserve" width="612" height="119" viewBox="0 335.9 612 119"><path fill="#FFF" d="M20.4 335.9v40.8a37.1 37.1 0 0 1 25.9-11.2 36.7 36.7 0 0 1 27.5 12A45 45 0 0 1 85 408.9a43.2 43.2 0 0 1-11.6 30.9 36.9 36.9 0 0 1-40.9 10 37 37 0 0 1-12-8.4v8.8H0V335.9h20.4zm21.7 48.7c-6.1-.2-12 2.2-16.3 6.7a25 25 0 0 0-6.2 17.5c-.3 6.6 2 13 6.2 18a21 21 0 0 0 16.3 6.6c6 0 11.8-2.5 15.8-7a25.5 25.5 0 0 0 6.7-17.6 25 25 0 0 0-6.2-17.7 22.3 22.3 0 0 0-16.3-6.5zM158.4 368h20.9v82.5h-20.9v-8.7a42 42 0 0 1-12 8.3 34.6 34.6 0 0 1-13.4 2.5 35.6 35.6 0 0 1-27.5-12.5 42.5 42.5 0 0 1-11.7-30.9 43.6 43.6 0 0 1 11.3-31.2 35 35 0 0 1 27.5-12.1 37.1 37.1 0 0 1 25.8 11.3V368zm-21.7 16.6c-6-.2-11.8 2.3-15.8 6.7a25 25 0 0 0-6.3 17.5 25 25 0 0 0 6.3 17.5 22.2 22.2 0 0 0 32.1.4 25.4 25.4 0 0 0 6.3-17.9 25 25 0 0 0-6.3-17.5 22.3 22.3 0 0 0-16.3-6.7zm57.6-16.6h17.9v10.6c1.7-3.6 4.3-6.8 7.5-9.2 3-2.1 6.7-3.3 10.4-3.3 3 .1 5.7.8 8.4 2l-6.3 18a14 14 0 0 0-5.8-1.7 9.2 9.2 0 0 0-8 5.9c-2 3.7-3.3 11.6-3.3 23.3v37.5h-20.4V368h-.4zm128.4 16.6-17.1 9.6c-2.7-3-6-5.4-9.6-7a30 30 0 0 0-11.3-2.1 24.2 24.2 0 0 0-25.8 25 22.3 22.3 0 0 0 7 17 29 29 0 0 0 40.1-2.9l16.3 11.3c-8.8 11.7-21.3 17.1-37.6 17.1a44.6 44.6 0 0 1-34.1-13 42.6 42.6 0 0 1 10-67.9c7.4-4 15.7-6 24.1-5.8a48 48 0 0 1 22.1 5 36 36 0 0 1 15.9 13.7zm10.4-48.7h20.4v40.4a50 50 0 0 1 12.1-8c4-1.6 8.2-2.4 12.5-2.4 7.8-.1 15.3 2.9 20.9 8.3 5 5 7 12.1 7 21.7v54.6h-20.4v-36.3c.2-6.5-.2-13-1.2-19.6-.6-3-2.2-5.6-4.6-7.5a13.2 13.2 0 0 0-8.3-2.5c-4-.1-8 1.4-10.9 4.2-3 3.1-5.2 7-6.2 11.3-.7 5.6-1 11.3-.9 17v33.4h-20.4V336zM480.7 368h20.8v82.5h-20.8v-8.7a42 42 0 0 1-12.1 8.3 34.6 34.6 0 0 1-13.4 2.5 35.6 35.6 0 0 1-27.5-12.5 42.5 42.5 0 0 1-11.6-30.9 43.6 43.6 0 0 1 11.2-31.2c7-8 17-12.4 27.5-12.1a37.1 37.1 0 0 1 25.8 11.3V368zM459 384.6c-6-.2-11.8 2.3-15.8 6.7a25 25 0 0 0-6.3 17.5 25 25 0 0 0 6.3 17.5 22.2 22.2 0 0 0 32 .4 25 25 0 0 0 6.3-17.9 25 25 0 0 0-6.2-17.5 23.8 23.8 0 0 0-16.3-6.7zm58-16.6h17.9v10.6a24 24 0 0 1 7.5-9.2c3-2.1 6.7-3.3 10.4-3.3 2.9.1 5.7.8 8.3 2l-6.2 18a14 14 0 0 0-5.9-1.7 9.2 9.2 0 0 0-7.9 5.9c-2 3.7-3.3 11.6-3.3 23.3v37.5h-20.4V368h-.5zm62-30.5h21V368h12v17.9h-12v64.6h-21v-65h-10.4V368h10.5v-30.5z"/></svg>